<?xml version="1.0" encoding="UTF-8" standalone="no"?>
<!-- Created with Inkscape (http://www.inkscape.org/) -->

<svg
   version="1.1"
   id="svg2"
   width="512"
   height="512"
   viewBox="0 0 512 512"
   sodipodi:docname="bilibili-1.png"
   xml:space="preserve"
   inkscape:version="1.2.2 (b0a8486541, 2022-12-01)"
   xmlns:inkscape="http://www.inkscape.org/namespaces/inkscape"
   xmlns:sodipodi="http://sodipodi.sourceforge.net/DTD/sodipodi-0.dtd"
   xmlns:xlink="http://www.w3.org/1999/xlink"
   xmlns="http://www.w3.org/2000/svg"
   xmlns:svg="http://www.w3.org/2000/svg"><defs
     id="defs6"><linearGradient
       inkscape:collect="always"
       id="linearGradient4121"><stop
         style="stop-color:#ff85ac;stop-opacity:1;"
         offset="0"
         id="stop4117" /><stop
         style="stop-color:#ff5b8f;stop-opacity:1;"
         offset="1"
         id="stop4119" /></linearGradient><linearGradient
       inkscape:collect="always"
       id="linearGradient289"><stop
         style="stop-color:#ff6f9f;stop-opacity:1;"
         offset="0"
         id="stop285" /><stop
         style="stop-color:#ff2e6f;stop-opacity:1;"
         offset="1"
         id="stop287" /></linearGradient><linearGradient
       inkscape:collect="always"
       xlink:href="#linearGradient289"
       id="linearGradient291"
       x1="259.05502"
       y1="1.5443617"
       x2="257.34613"
       y2="508.18057"
       gradientUnits="userSpaceOnUse" /><linearGradient
       inkscape:collect="always"
       xlink:href="#linearGradient4121"
       id="linearGradient4123"
       x1="385.03058"
       y1="98.46199"
       x2="386.39929"
       y2="574.71722"
       gradientUnits="userSpaceOnUse"
       gradientTransform="matrix(0.99481878,0,0,1,2.7738865,0)" /></defs><sodipodi:namedview
     id="namedview4"
     pagecolor="#ffffff"
     bordercolor="#000000"
     borderopacity="0.25"
     inkscape:showpageshadow="2"
     inkscape:pageopacity="0.0"
     inkscape:pagecheckerboard="0"
     inkscape:deskcolor="#d1d1d1"
     showgrid="false"
     inkscape:zoom="1.3037281"
     inkscape:cx="-66.348189"
     inkscape:cy="314.86626"
     inkscape:window-width="2560"
     inkscape:window-height="1471"
     inkscape:window-x="0"
     inkscape:window-y="0"
     inkscape:window-maximized="1"
     inkscape:current-layer="layer3" /><g
     inkscape:groupmode="layer"
     id="layer1"
     inkscape:label="background"
     style="display:inline"><rect
       style="fill:url(#linearGradient291);fill-opacity:1"
       id="rect169"
       x="0"
       y="0"
       width="512"
       height="512"
       ry="113.74316" /></g><g
     inkscape:groupmode="layer"
     id="layer2"
     inkscape:label="tv"
     transform="matrix(0.77013999,0,0,0.77013999,-115.8595,-14.021249)"
     style="display:inline"><path
       style="display:inline;fill:url(#linearGradient4123);fill-opacity:1;stroke-width:0.74889"
       d="m 413.13673,580.22628 c -40.58033,-1.31941 -100.46438,-5.08477 -112.04226,-7.04496 -27.9566,-4.73316 -52.63946,-23.02455 -65.3667,-48.4403 -3.59688,-7.18282 -6.79192,-16.67044 -8.2068,-24.36988 -1.1899,-6.47532 -3.49404,-32.16502 -5.01997,-55.96985 -1.26341,-19.70937 -1.25977,-103.38893 0.005,-123.51295 2.24295,-35.67744 5.4615,-70.70313 7.33924,-79.86896 6.68881,-32.65012 32.27304,-59.51098 64.75747,-67.98883 10.18553,-2.65824 14.22166,-2.97737 79.14182,-6.25777 l 11.02722,-0.55719 -6.81394,-9.01007 c -12.49119,-16.51709 -20.25967,-27.58744 -21.77408,-31.02885 -0.94147,-2.13944 -1.51234,-5.102 -1.5345,-7.96334 -0.11349,-14.67202 12.0577,-26.706189 27.01039,-26.706189 6.43847,0 11.11761,1.606776 15.18933,5.215875 5.36412,4.754674 28.8172,38.167044 41.27371,58.800504 l 5.78383,9.58056 34.76039,-0.19508 34.7604,-0.19509 6.46336,-10.51174 c 10.63463,-17.29568 27.83662,-42.39897 36.36626,-53.07016 3.12862,-3.914122 5.07419,-5.543243 8.85358,-7.413518 4.57545,-2.264223 5.20705,-2.378623 11.4003,-2.064892 5.2769,0.267317 7.39871,0.750797 10.87202,2.477316 12.4518,6.189594 18.51581,21.247194 13.15515,32.665644 -1.90129,4.04985 -11.29214,17.41441 -22.14403,31.51424 -6.40458,8.32144 -6.49621,8.14606 4.29986,8.22949 16.3854,0.12662 70.62509,3.2791 78.91382,4.58658 33.38786,5.26667 62.17545,30.80903 71.61086,63.53813 6.40865,22.23013 11.96521,118.39034 10.07354,174.32937 -1.35363,40.02819 -4.05385,78.85815 -6.35429,91.37677 -6.82674,37.14986 -36.52214,66.5372 -73.57351,72.81018 -12.2807,2.07918 -70.38296,5.64756 -115.77699,7.11057 -26.78844,0.86339 -107.0838,0.82419 -134.4507,-0.0656 z m 136.31808,-51.73312 c 48.10841,-1.55904 102.24453,-5.12405 109.39602,-7.20403 12.28181,-3.57211 22.11938,-12.97811 26.14887,-25.00171 1.58042,-4.71577 3.50026,-22.43357 5.29691,-48.88277 1.27919,-18.83229 1.76506,-88.13583 0.77405,-110.40737 -1.55078,-34.85024 -5.17859,-78.43407 -7.20864,-86.603 -3.16491,-12.73537 -13.26157,-23.38437 -25.6291,-27.03107 -4.32238,-1.2745 -23.43472,-2.67162 -63.58775,-4.6483 -32.97876,-1.62351 -141.90753,-2.29495 -185.24318,-1.14184 -53.73947,1.42993 -96.53333,3.83148 -103.17602,5.79014 -12.36753,3.6467 -22.46421,14.2957 -25.62909,27.03107 -2.03004,8.16893 -5.65788,51.75276 -7.20864,86.603 -0.99105,22.27154 -0.50515,91.57508 0.77406,110.40737 1.79662,26.4492 3.71649,44.167 5.29689,48.88277 4.02948,12.0236 13.86706,21.4296 26.14888,25.00171 6.65791,1.93642 60.41744,5.598 104.54085,7.1203 25.93403,0.89473 112.67096,0.94688 139.30589,0.0837 z M 434.56499,444.02461 c -15.27967,-4.22215 -25.91114,-16.92721 -32.9844,-39.41777 -2.22075,-7.06126 -2.5975,-11.53213 -1.19388,-14.16846 1.29218,-2.42705 7.0289,-4.86249 10.09272,-4.28472 3.52741,0.66519 5.26825,2.98989 7.91524,10.56994 4.88898,14.00034 11.42903,23.75645 18.01034,26.86695 3.05714,1.44487 8.58259,1.66818 12.71681,0.51393 7.17621,-2.00354 15.99767,-11.45027 22.39252,-23.97969 4.63059,-9.07269 8.56599,-11.41391 14.46002,-8.60244 1.84603,0.88055 3.18762,2.5537 5.26796,6.56984 6.61306,12.76665 13.82121,21.46731 20.47136,24.71011 4.99628,2.43633 11.74285,2.68583 16.04304,0.59331 6.6746,-3.24794 13.43658,-13.55166 17.99707,-27.42341 2.28592,-6.95315 3.32191,-8.35149 6.99715,-9.44441 3.83316,-1.13988 8.08622,0.42336 10.37419,3.81312 2.17377,3.22057 1.96502,5.62764 -1.40813,16.23667 -6.59818,20.75215 -17.70777,33.56217 -32.45592,37.42358 -15.389,4.02921 -32.4199,-3.41326 -44.07314,-19.25985 l -3.13844,-4.26779 -4.67569,5.967 c -11.51761,14.69853 -28.30173,21.59275 -42.80882,17.58409 z M 326.03331,368.36444 c -8.56384,-3.40416 -14.48156,-12.25593 -14.48156,-21.6616 0,-5.73156 1.57731,-9.17216 5.54167,-12.08804 10.28701,-7.56635 59.81865,-27.71278 91.14981,-37.07415 13.25959,-3.96181 16.12608,-4.00409 21.19554,-0.31267 6.38333,4.64815 10.21755,18.14546 7.32066,25.77037 -0.68242,1.79623 -2.15916,4.11272 -3.28163,5.14776 -1.22438,1.12902 -9.95975,4.98108 -21.83498,9.62864 -10.88677,4.26071 -29.03762,11.60788 -40.33521,16.32703 -35.74433,14.93087 -40.12308,16.31029 -45.2743,14.26266 z m 301.85107,-1.18642 c -3.28658,-1.19054 -10.5133,-4.04341 -16.05939,-6.33971 -5.54609,-2.29632 -17.14247,-7.09745 -25.76972,-10.66921 -8.62725,-3.57175 -23.41683,-9.53025 -32.86573,-13.24111 -9.4489,-3.71085 -17.95214,-7.25129 -18.8961,-7.86763 -8.56288,-5.59105 -5.95002,-25.44413 4.25884,-32.35972 5.40145,-3.65898 7.27866,-3.41975 29.20275,3.72161 25.23109,8.21853 52.15299,18.85131 69.92682,27.6175 13.104,6.46301 16.02305,8.86036 17.49949,14.37195 1.67833,6.26537 -1.21877,15.33306 -6.63995,20.78248 -6.27388,6.30656 -11.47555,7.30973 -20.65701,3.98384 z"
       id="path116" /></g><g
     inkscape:groupmode="layer"
     id="layer3"
     inkscape:label="bili"
     style="display:inline"><g
       id="g10356"><path
         style="fill:#ffffff;fill-opacity:1;stroke-width:0.383516"
         d="m 64.687713,349.9708 c -1.6344,-0.15011 -2.939508,-0.46606 -3.117982,-0.75484 -0.168827,-0.27317 -0.421732,-2.07323 -0.562011,-4.00014 -0.617172,-8.47764 -4.160377,-47.24612 -5.034558,-55.08631 -2.781451,-24.94578 -7.700012,-60.38371 -11.870185,-85.52397 -2.573679,-15.51564 -5.045909,-29.597 -5.399964,-30.75718 -0.134494,-0.44071 0.148486,-0.82924 0.875451,-1.20198 1.096657,-0.56229 19.531787,-7.44403 28.015352,-10.45798 l 4.697266,-1.6688 -0.239317,22.90588 c -0.256137,24.51575 0.07123,38.02625 1.383132,57.08252 1.055096,15.32598 3.016357,34.59619 3.703283,36.38628 0.184981,0.48206 1.853876,0.56304 11.204852,0.54373 17.024698,-0.0352 26.631008,1.40551 39.942918,5.99032 5.64361,1.94373 17.53489,7.59495 21.42818,10.18353 3.6433,2.42236 7.48039,6.48551 8.95675,9.48444 1.13138,2.29815 1.25243,2.87159 1.228,5.8174 -0.0457,5.50673 -2.38194,9.9454 -8.38807,15.93643 -12.25675,12.22591 -38.90657,23.08802 -61.576415,25.09771 -4.789546,0.4246 -20.715785,0.43908 -25.246682,0.023 z m 33.10875,-19.71129 c 3.991297,-1.87052 14.128337,-8.37896 18.792267,-12.06551 4.22708,-3.34124 9.01261,-7.7608 9.01261,-8.32337 0,-0.74999 -1.51343,-1.66583 -7.09504,-4.2935 -7.65137,-3.60205 -19.828349,-7.43638 -25.498369,-8.02902 l -2.306505,-0.24107 v 1.13127 c 0,1.59626 1.327596,12.11787 2.890039,22.90447 0.730746,5.04485 1.328632,9.3188 1.328632,9.49767 0,0.53876 0.856083,0.36586 2.876366,-0.58094 z"
         id="path10290" /><path
         style="fill:#ffffff;fill-opacity:1;stroke-width:0.383516"
         d="m 157.07241,251.02501 c -0.36334,-0.22455 -5.77553,-26.47907 -5.77553,-28.01709 0,-0.419 0.38994,-0.74187 1.05467,-0.87328 2.19583,-0.4341 8.93294,-1.14957 9.11455,-0.96795 0.63618,0.63618 4.24199,28.24245 3.7528,28.73163 -0.4544,0.45441 -7.62879,1.44665 -8.14649,1.12669 z"
         id="path10292" /><path
         style="fill:#ffffff;fill-opacity:1;stroke-width:0.383516"
         d="m 169.88872,248.99747 c -0.2846,-0.77369 -2.81171,-21.24765 -3.09525,-25.07689 l -0.25947,-3.50414 2.64048,-0.404 c 1.45227,-0.2222 3.63268,-0.48811 4.84535,-0.59091 2.02785,-0.1719 2.21936,-0.11985 2.38526,0.64826 0.32911,1.52373 3.27194,25.86616 3.27194,27.06475 0,1.31545 0.0586,1.29003 -4.48389,1.94478 -3.63625,0.52412 -5.08976,0.50169 -5.30442,-0.0819 z"
         id="path10294" /><path
         style="fill:#ffffff;fill-opacity:1;stroke-width:0.383516"
         d="m 173.01398,337.01428 c -0.9562,-4.20775 -14.90415,-73.47157 -14.95709,-74.27508 -0.0339,-0.51482 0.29723,-0.82513 1.10206,-1.03272 1.54128,-0.39752 21.73438,-3.08733 21.90401,-2.91771 0.0734,0.0734 2.11841,16.34503 4.54457,36.15926 2.42616,19.81424 4.58555,37.38183 4.79864,39.03911 0.21308,1.65727 0.29963,3.15528 0.19232,3.32892 -0.10731,0.17363 -1.18474,0.42717 -2.39428,0.56342 -1.20955,0.13625 -4.87419,0.57946 -8.14366,0.9849 -3.26947,0.40543 -6.0601,0.73749 -6.20139,0.7379 -0.14129,3.8e-4 -0.52162,-1.1642 -0.84518,-2.588 z"
         id="path10296" /><path
         style="fill:#ffffff;fill-opacity:1;stroke-width:0.383516"
         d="m 208.06461,330.11139 c -2.84352,-0.0659 -5.30956,-0.25928 -5.48008,-0.42981 -0.17053,-0.17053 -0.98605,-5.64473 -1.81226,-12.16487 -0.82621,-6.52016 -1.84641,-14.18468 -2.2671,-17.03228 -0.4207,-2.84761 -1.12144,-8.71539 -1.55721,-13.03953 -0.43577,-4.32414 -2.07963,-18.21699 -3.65302,-30.873 -1.57338,-12.65601 -3.91173,-31.72633 -5.19632,-42.37847 -1.28459,-10.65214 -2.66763,-21.75998 -3.07343,-24.68409 -0.4058,-2.92411 -0.6583,-5.44522 -0.56112,-5.60247 0.30403,-0.49192 16.03532,-2.69448 19.25097,-2.69534 l 1.60234,-4.4e-4 0.22488,2.01346 c 0.21548,1.92937 2.08117,23.87149 7.11703,83.70227 1.27829,15.18721 2.84038,33.5672 3.47132,40.8444 0.63095,7.27721 1.25489,15.23223 1.38654,17.67783 l 0.23937,4.44654 -1.83507,0.25153 c -1.00929,0.13833 -2.02671,0.21383 -2.26094,0.16777 -0.23423,-0.0461 -2.75238,-0.13764 -5.5959,-0.2035 z"
         id="path10298" /><path
         style="fill:#ffffff;fill-opacity:1;stroke-width:0.383516"
         d="m 224.99011,249.7388 c -0.38088,-0.45893 -2.35934,-23.34032 -2.35934,-27.28632 0,-1.63136 0.007,-1.63919 1.59233,-1.85187 0.87578,-0.11746 3.10827,-0.11536 4.96108,0.005 l 3.36876,0.21825 0.20307,2.3418 c 0.34195,3.94336 0.67345,25.70824 0.40233,26.41478 -0.21745,0.56668 -0.8028,0.66377 -4.00188,0.66377 -2.63154,0 -3.87196,-0.15038 -4.16635,-0.50509 z"
         id="path10300" /><path
         style="fill:#ffffff;fill-opacity:1;stroke-width:0.383516"
         d="m 238.14053,249.82377 c -0.28983,-0.46895 -0.87262,-26.33733 -0.63052,-27.98685 0.19652,-1.33895 1.05028,-1.51801 5.87615,-1.23235 l 3.68894,0.21836 0.23936,2.53386 c 0.31396,3.3235 0.3105,15.04141 -0.006,21.649 l -0.25122,5.2381 h -4.32833 c -2.72329,0 -4.42463,-0.15579 -4.58799,-0.42012 z"
         id="path10302" /><path
         style="fill:#ffffff;fill-opacity:1;stroke-width:0.383516"
         d="m 231.30106,337.58956 c -0.44996,-4.40295 -1.4353,-16.75857 -2.14858,-26.94197 -1.02109,-14.57791 -2.60048,-35.50692 -3.06782,-40.65265 -0.21073,-2.32027 -0.38373,-5.3862 -0.38445,-6.81319 l -0.001,-2.59452 11.21783,0.10167 11.21783,0.10167 0.0977,39.40622 0.0977,39.40622 h -8.41154 -8.41155 z"
         id="path10304" /><path
         style="fill:#ffffff;fill-opacity:1;stroke-width:0.383516"
         d="m 282.14544,349.98154 c -1.75457,-0.16828 -3.33818,-0.45816 -3.51913,-0.64418 -0.18095,-0.18602 -0.69357,-4.65277 -1.13916,-9.9261 -3.5099,-41.53804 -8.06478,-79.34015 -14.76436,-122.53322 -2.0974,-13.52221 -5.80868,-35.32595 -6.56058,-38.54331 -0.94962,-4.06345 -0.81964,-4.64521 1.2726,-5.69554 1.82103,-0.91417 28.58195,-10.70333 30.3936,-11.11799 l 0.95879,-0.21946 v 32.29446 c 0,22.95057 0.14392,34.12536 0.4974,38.62246 1.2922,16.43954 2.12032,25.52749 3.16273,34.70816 0.62271,5.48427 1.13256,10.08424 1.13301,10.22216 3.8e-4,0.13791 6.08432,0.33049 13.51973,0.42796 14.49298,0.18999 18.22864,0.56826 27.51724,2.7864 10.68544,2.55171 24.65574,8.44994 32.18761,13.58955 4.73846,3.23344 8.0444,7.18703 9.23619,11.04559 1.03508,3.35119 0.96086,5.27639 -0.34091,8.84333 -1.51197,4.14288 -3.37947,6.91405 -7.27963,10.80216 -3.82789,3.81608 -5.97564,5.45653 -11.55936,8.82911 -13.00879,7.85733 -28.40926,13.27423 -44.67956,15.71542 -4.18053,0.62724 -7.74659,0.83807 -16.10765,0.9523 -5.90614,0.0807 -12.17399,0.009 -13.92856,-0.15926 z m 32.52459,-19.77239 c 9.75072,-4.94106 27.61759,-18.24253 27.61759,-20.56064 0,-1.1596 -12.02354,-6.58277 -20.13456,-9.08162 -5.55215,-1.71051 -9.80473,-2.74137 -12.44911,-3.01776 -2.10433,-0.21995 -2.31624,-0.17548 -2.31624,0.48604 0,2.47229 3.7419,30.91771 4.23918,32.22565 0.43114,1.13398 0.71281,1.1292 3.04314,-0.0517 z"
         id="path10306" /><path
         style="fill:#ffffff;fill-opacity:1;stroke-width:0.383516"
         d="m 374.33375,250.87448 c -0.63178,-0.47123 -6.34537,-27.99325 -5.9032,-28.43541 0.32493,-0.32494 9.8749,-1.50283 10.12848,-1.24925 0.27226,0.27226 3.99772,26.08481 3.99772,27.69896 v 1.26134 l -3.164,0.45233 c -1.7402,0.24879 -3.458,0.5105 -3.81733,0.5816 -0.35933,0.0711 -0.91808,-0.0682 -1.24167,-0.30957 z"
         id="path10308" /><path
         style="fill:#ffffff;fill-opacity:1;stroke-width:0.383516"
         d="m 386.99662,249.04107 c -0.18651,-0.56811 -2.21331,-17.03613 -2.95559,-24.01458 -0.25248,-2.3737 -0.35317,-4.4217 -0.22375,-4.55112 0.22256,-0.22255 7.38003,-1.27015 8.79945,-1.28792 0.85184,-0.0107 0.85474,0.004 2.20181,10.92188 1.95107,15.8137 2.12663,17.85738 1.56386,18.20519 -0.27308,0.16877 -1.55402,0.41628 -2.84653,0.55001 -1.29251,0.13373 -3.25396,0.34584 -4.35878,0.47134 -1.51177,0.17174 -2.05124,0.0988 -2.18047,-0.2948 z"
         id="path10310" /><path
         style="fill:#ffffff;fill-opacity:1;stroke-width:0.383516"
         d="m 390.60311,338.7401 c -0.20599,-0.4746 -1.33307,-5.60891 -2.50462,-11.40958 -1.17155,-5.80068 -4.53464,-22.45484 -7.47354,-37.00925 -2.9389,-14.55442 -5.45167,-26.84781 -5.58392,-27.31865 -0.18881,-0.67215 -0.0374,-0.93329 0.70478,-1.21546 1.27346,-0.48417 21.69664,-3.19533 22.11636,-2.93593 0.50058,0.30938 0.47865,0.14593 5.17371,38.56507 4.96302,40.61181 4.81461,39.29468 4.48727,39.82431 -0.17604,0.28485 -14.54539,2.3624 -16.33944,2.3624 -0.11333,0 -0.3746,-0.38831 -0.5806,-0.86291 z"
         id="path10312" /><path
         style="fill:#ffffff;fill-opacity:1;stroke-width:0.383516"
         d="m 419.25079,328.91847 c -0.12063,-0.60316 -0.754,-5.65118 -1.4075,-11.21783 -2.03128,-17.30298 -7.62935,-63.17796 -13.65841,-111.92773 -1.36842,-11.06475 -2.43686,-20.54679 -2.37432,-21.07119 0.14443,-1.21087 0.43391,-1.28301 10.08513,-2.51313 4.21867,-0.5377 8.1099,-1.05258 8.64716,-1.14417 1.63026,-0.27793 1.91584,0.22391 2.29651,4.03575 0.34099,3.4144 4.39855,50.95945 8.22864,96.42024 0.95965,11.39041 2.16819,25.71472 2.68564,31.83179 0.51746,6.11707 1.03891,12.37317 1.15878,13.90244 l 0.21795,2.78048 h -7.83012 -7.83013 z"
         id="path10314" /><path
         style="fill:#ffffff;fill-opacity:1;stroke-width:0.383516"
         d="m 448.71884,339.61216 c -0.2727,-0.44123 -5.94111,-73.60411 -5.94648,-76.75186 l -0.004,-2.14894 2.93423,-0.24803 c 3.71933,-0.3144 8.58007,-0.31293 14.80337,0.004 l 4.88982,0.24939 v 39.38746 39.38746 l -2.58873,0.24449 c -4.05458,0.38293 -13.82833,0.29661 -14.08854,-0.12443 z"
         id="path10316" /><path
         style="fill:#ffffff;fill-opacity:1;stroke-width:0.383516"
         d="m 441.81773,249.39385 c -0.30425,-1.29971 -2.11578,-23.92182 -2.11652,-26.43073 -6e-4,-2.01748 0.0648,-2.17302 0.98779,-2.34946 0.54363,-0.10392 2.85492,-0.10048 5.13618,0.008 l 4.14776,0.19659 0.2604,8.86439 c 0.14322,4.87541 0.20494,11.45311 0.13716,14.61711 l -0.12325,5.75273 -4.11226,0.10875 c -4.00781,0.10599 -4.11746,0.0865 -4.31726,-0.76703 z"
         id="path10318" /><path
         style="fill:#ffffff;fill-opacity:1;stroke-width:0.383516"
         d="m 454.89222,247.84692 c -0.11552,-1.31834 -0.31572,-8.06721 -0.44489,-14.9975 l -0.23487,-12.60053 4.92067,0.27723 c 2.70637,0.15248 5.00697,0.35741 5.11243,0.45541 0.28839,0.26796 0.46389,25.753 0.19029,27.63242 l -0.23728,1.62994 h -4.54817 -4.54816 z"
         id="path10320" /></g></g></svg>
