<?xml version="1.0" encoding="UTF-8" standalone="no"?>
<!-- Created with Inkscape (http://www.inkscape.org/) -->

<svg
   width="512px"
   height="512px"
   viewBox="0 0 512 512"
   version="1.1"
   id="svg5"
   inkscape:version="1.1.2 (0a00cf5339, 2022-02-04)"
   sodipodi:docname="io.github.msojocs.bilibili.svg"
   xmlns:inkscape="http://www.inkscape.org/namespaces/inkscape"
   xmlns:sodipodi="http://sodipodi.sourceforge.net/DTD/sodipodi-0.dtd"
   xmlns:xlink="http://www.w3.org/1999/xlink"
   xmlns="http://www.w3.org/2000/svg"
   xmlns:svg="http://www.w3.org/2000/svg">
  <sodipodi:namedview
     id="namedview7"
     pagecolor="#ffffff"
     bordercolor="#666666"
     borderopacity="1.0"
     inkscape:pageshadow="2"
     inkscape:pageopacity="0.0"
     inkscape:pagecheckerboard="0"
     inkscape:document-units="mm"
     showgrid="false"
     inkscape:zoom="0.7937095"
     inkscape:cx="243.79197"
     inkscape:cy="259.5408"
     inkscape:window-width="1336"
     inkscape:window-height="732"
     inkscape:window-x="525"
     inkscape:window-y="213"
     inkscape:window-maximized="0"
     inkscape:current-layer="layer3" />
  <defs
     id="defs2">
    <linearGradient
       inkscape:collect="always"
       id="linearGradient2163">
      <stop
         style="stop-color:#ff2f70;stop-opacity:1"
         offset="0"
         id="stop2159" />
      <stop
         style="stop-color:#ff6e9e;stop-opacity:1"
         offset="1"
         id="stop2161" />
    </linearGradient>
    <linearGradient
       inkscape:collect="always"
       xlink:href="#linearGradient2163"
       id="linearGradient2165"
       x1="254.72687"
       y1="513.92328"
       x2="255.49025"
       y2="1.6289048"
       gradientUnits="userSpaceOnUse"
       gradientTransform="matrix(0.92618356,0,0,0.92618356,18.897638,18.897638)" />
  </defs>
  <g
     inkscape:groupmode="layer"
     id="layer3"
     inkscape:label="图层 3"
     style="display:inline">
    <circle
       style="fill:url(#linearGradient2165);fill-opacity:1;stroke-width:0.927642;stroke-miterlimit:4;stroke-dasharray:none"
       id="path919"
       cx="256.00064"
       cy="256.00064"
       r="237.103" />
  </g>
  <g
     inkscape:groupmode="layer"
     id="layer2"
     inkscape:label="图层 2"
     style="display:inline">
    <g
       id="g894"
       transform="matrix(1.2206029,0,0,1.2500305,109.0742,103.98639)">
      <path
         d="m 99.705,101.314 -40.021,7.662 3.427,15.02 39.617,-7.662 z m 21.572,39.818 c -9.778,20.967 -18.548,5.141 -18.548,5.141 l -6.552,4.235 c 0,0 12.902,17.641 25.201,4.233 14.517,13.408 25.605,-4.334 25.605,-4.334 l -5.948,-3.831 c 0,-0.101 -10.383,14.919 -19.758,-5.444 z m 19.758,-24.799 39.718,7.662 3.326,-15.019 -39.919,-7.663 z m 78.861,-29.492 c -0.632,-27.979 -25.035,-33.344 -25.035,-33.344 0,0 -19.04,-0.105 -43.759,-0.316 L 169.09,35.825 c 0,0 2.839,-3.577 -1.999,-7.573 -4.84,-3.997 -5.155,-2.209 -6.837,-1.157 -1.473,1.052 -23.038,22.195 -26.824,25.982 -9.782,0 -19.986,-0.106 -29.873,-0.106 h 3.471 c 0,0 -25.771,-25.456 -27.455,-26.612 -1.683,-1.157 -1.893,-2.839 -6.837,1.156 -4.839,3.998 -1.999,7.574 -1.999,7.574 l 18.408,17.882 c -19.985,0 -37.238,0.106 -45.231,0.421 -25.877,7.469 -23.878,33.45 -23.878,33.45 0,0 0.315,55.75 0,83.941 2.84,28.191 24.509,32.713 24.509,32.713 0,0 8.625,0.211 15.042,0.211 0.631,1.788 1.157,10.624 11.045,10.624 9.783,0 11.044,-10.624 11.044,-10.624 0,0 72.056,-0.315 78.051,-0.315 0.316,3.05 1.789,11.149 11.676,11.046 9.782,-0.212 10.518,-11.677 10.518,-11.677 0,0 3.367,-0.316 13.36,0 23.352,-4.313 24.719,-31.662 24.719,-31.662 0,0 -0.42,-56.278 -0.104,-84.258 z m -20.091,89.202 c 0,4.417 -3.472,7.993 -7.784,7.993 H 50.016 c -4.313,0 -7.784,-3.576 -7.784,-7.993 V 81.898 c 0,-4.418 3.472,-7.995 7.784,-7.995 h 142.005 c 4.312,0 7.784,3.577 7.784,7.995 z"
         id="path2"
         style="fill:#ff7ba6;fill-opacity:1" />
      <path
         style="fill:#ffffff;stroke-width:0.0380952"
         d="m 185.405,100.679 c 0.628,0.105 5.548,-0.994 5.757,-0.628 0.315,0.471 2.513,16.279 1.937,16.384 -0.576,0.105 -4.658,1.047 -4.658,1.047 -0.315,-2.146 -2.984,-15.442 -3.036,-16.803 m 7.851,-1.518 2.146,17.012 c 1.1,-0.052 5.549,-0.366 5.968,-0.418 -0.628,-6.439 -1.728,-16.594 -1.728,-16.594 -2.093,-0.418 -4.292,-0.418 -6.386,0 m -4.24,23.608 c 0,0 9.684,-2.46 13.191,-1.256 1.78,6.438 5.025,42.556 5.339,44.021 -2.198,0.262 -9.422,0.89 -9.997,1.047 -0.472,-2.722 -8.533,-42.085 -8.533,-43.812 m 35.856,-21.671 c 0.576,0.157 5.706,-0.523 5.758,-0.157 0.105,1.256 0.628,16.436 0.053,16.489 -0.576,0.052 -4.659,0.418 -4.659,0.418 -0.105,-2.093 -1.256,-15.337 -1.152,-16.75 m 7.904,-0.419 0.419,16.803 c 1.099,0 5.496,0.262 5.967,0.209 -0.104,-6.438 0,-16.593 0,-16.593 -2.093,-0.366 -4.239,-0.523 -6.386,-0.419 m -6.752,22.561 c 0,0 9.893,-1.309 13.243,0.262 0.733,7.537 0.628,42.661 0.733,44.126 -2.251,0 -9.422,0.105 -9.998,0.21 -0.105,-2.722 -4.135,-42.871 -3.978,-44.598 M 203.045,80.056 c 5.705,29.103 10.05,78.831 10.207,82.024 0,0 4.502,0.104 9.579,0.418 -2.984,-31.354 -6.648,-81.448 -6.595,-83.07 -1.257,-1.414 -13.191,0.628 -13.191,0.628 m -12.563,68.833 c -1.099,-8.166 -30.308,-17.431 -46.744,-14.447 0,0 -2.041,-18.007 -2.826,-35.438 -0.681,-14.97 -0.105,-29.522 0.052,-31.93 -1.099,-0.785 -12.929,4.868 -19.315,7.224 0,0 7.642,32.349 13.191,99.454 0,0 8.846,0.943 24.026,-1.989 15.18,-2.931 33.134,-12.091 31.616,-22.874 m -35.699,14.709 -2.565,-18.478 c 0.628,-0.314 16.384,5.549 18.059,6.595 -0.262,1.152 -15.494,11.883 -15.494,11.883 M 63.756,100.679 c 0.628,0.105 5.548,-0.994 5.758,-0.628 0.314,0.471 2.512,16.279 1.936,16.384 -0.575,0.105 -4.658,1.047 -4.658,1.047 -0.314,-2.146 -2.984,-15.442 -3.036,-16.803 m 7.851,-1.518 2.147,17.012 c 1.099,-0.052 5.548,-0.366 5.967,-0.418 -0.681,-6.439 -1.728,-16.594 -1.728,-16.594 -2.093,-0.418 -4.292,-0.418 -6.386,0 m -4.239,23.608 c 0,0 9.683,-2.46 13.19,-1.256 1.78,6.438 5.025,42.556 5.339,44.021 -2.198,0.262 -9.422,0.89 -9.997,1.047 -0.471,-2.722 -8.532,-42.085 -8.532,-43.812 m 35.856,-21.671 c 0.575,0.157 5.705,-0.523 5.757,-0.157 0.105,1.256 0.629,16.436 0.053,16.489 -0.576,0.052 -4.659,0.418 -4.659,0.418 -0.105,-2.093 -1.204,-15.337 -1.151,-16.75 m 7.904,-0.419 0.418,16.803 c 1.1,0 5.497,0.262 5.968,0.209 -0.105,-6.438 0,-16.593 0,-16.593 -2.094,-0.366 -4.24,-0.471 -6.386,-0.419 m -6.753,22.561 c 0,0 9.893,-1.309 13.243,0.262 0.733,7.537 0.628,42.661 0.733,44.126 -2.251,0 -9.422,0.105 -9.998,0.21 -0.052,-2.722 -4.135,-42.871 -3.978,-44.598 M 81.396,80.056 c 5.705,29.103 10.05,78.831 10.207,82.024 0,0 4.502,0.104 9.579,0.418 C 98.198,131.144 94.534,81.05 94.587,79.375 93.33,78.014 81.396,80.056 81.396,80.056 m -12.563,68.833 c -1.099,-8.166 -30.307,-17.431 -46.744,-14.447 0,0 -2.041,-18.007 -2.826,-35.438 C 18.582,84.034 19.158,69.482 19.315,67.074 18.216,66.341 6.386,71.942 0,74.298 c 0,0 7.642,32.349 13.191,99.454 0,0 8.846,0.943 24.026,-1.989 15.18,-2.931 33.134,-12.091 31.616,-22.874 M 33.134,163.598 30.569,145.12 c 0.628,-0.314 16.384,5.549 18.059,6.595 -0.262,1.152 -15.494,11.883 -15.494,11.883"
         id="path895" />
    </g>
  </g>
</svg>
