<?xml version="1.0" encoding="UTF-8"?>
<!DOCTYPE svg PUBLIC "-//W3C//DTD SVG 1.1//EN" "http://www.w3.org/Graphics/SVG/1.1/DTD/svg11.dtd">
<svg xmlns="http://www.w3.org/2000/svg" version="1.1" width="256px" height="256px" style="shape-rendering:geometricPrecision; text-rendering:geometricPrecision; image-rendering:optimizeQuality; fill-rule:evenodd; clip-rule:evenodd" xmlns:xlink="http://www.w3.org/1999/xlink">
<g><path style="opacity:0.982" fill="#ff6d9d" d="M 43.5,-0.5 C 99.5,-0.5 155.5,-0.5 211.5,-0.5C 227.109,3.64292 239.109,12.6429 247.5,26.5C 247.565,26.9382 247.399,27.2716 247,27.5C 245.471,26.2713 244.304,24.7713 243.5,23C 166.167,22.3333 88.8333,22.3333 11.5,23C 10.6959,24.7713 9.52921,26.2713 8,27.5C 7.60123,27.2716 7.43456,26.9382 7.5,26.5C 15.8907,12.6429 27.8907,3.64292 43.5,-0.5 Z"/></g>
<g><path style="opacity:0.994" fill="#ff6798" d="M 247.5,26.5 C 250.975,31.7838 253.642,37.4505 255.5,43.5C 255.5,46.8333 255.5,50.1667 255.5,53.5C 254.685,52.5707 253.852,51.5707 253,50.5C 225.53,51.8216 198.03,51.8216 170.5,50.5C 172.113,47.7139 173.946,45.0472 176,42.5C 177.218,31.7176 172.384,26.8843 161.5,28C 154.433,36.1345 148.1,44.8011 142.5,54C 132.151,54.8323 121.817,54.6656 111.5,53.5C 106.067,44.2467 99.7332,35.7467 92.5,28C 84.3864,26.9352 79.3864,30.4352 77.5,38.5C 78.9732,42.7797 80.9732,46.7797 83.5,50.5C 56.6095,51.8049 29.4429,51.8049 2,50.5C 1.14825,51.5707 0.314913,52.5707 -0.5,53.5C -0.5,50.1667 -0.5,46.8333 -0.5,43.5C 1.35814,37.4505 4.0248,31.7838 7.5,26.5C 7.43456,26.9382 7.60123,27.2716 8,27.5C 9.52921,26.2713 10.6959,24.7713 11.5,23C 88.8333,22.3333 166.167,22.3333 243.5,23C 244.304,24.7713 245.471,26.2713 247,27.5C 247.399,27.2716 247.565,26.9382 247.5,26.5 Z"/></g>
<g><path style="opacity:1" fill="#ff6093" d="M 83.5,50.5 C 85.3386,51.5077 86.6719,53.0077 87.5,55C 77.1385,55.7638 66.8052,56.7638 56.5,58C 51.0488,59.2228 46.3821,61.7228 42.5,65.5C 37.4168,69.333 34.0835,74.333 32.5,80.5C 28.7628,82.5314 24.7628,84.1981 20.5,85.5C 19.9426,87.7175 19.9426,90.0509 20.5,92.5C 18.8372,90.5615 18.1706,88.2282 18.5,85.5C 12.1667,85.5 5.83333,85.5 -0.5,85.5C -0.5,74.8333 -0.5,64.1667 -0.5,53.5C 0.314913,52.5707 1.14825,51.5707 2,50.5C 29.4429,51.8049 56.6095,51.8049 83.5,50.5 Z"/></g>
<g><path style="opacity:1" fill="#ff7ea8" d="M 170.5,50.5 C 169.521,51.7653 168.521,53.0986 167.5,54.5C 176.095,55.9765 184.762,56.8099 193.5,57C 200.693,58.2183 207.027,61.0517 212.5,65.5C 155.833,66.8333 99.1667,66.8333 42.5,65.5C 46.3821,61.7228 51.0488,59.2228 56.5,58C 66.8052,56.7638 77.1385,55.7638 87.5,55C 86.6719,53.0077 85.3386,51.5077 83.5,50.5C 80.9732,46.7797 78.9732,42.7797 77.5,38.5C 79.3864,30.4352 84.3864,26.9352 92.5,28C 99.7332,35.7467 106.067,44.2467 111.5,53.5C 121.817,54.6656 132.151,54.8323 142.5,54C 148.1,44.8011 154.433,36.1345 161.5,28C 172.384,26.8843 177.218,31.7176 176,42.5C 173.946,45.0472 172.113,47.7139 170.5,50.5 Z"/></g>
<g><path style="opacity:1" fill="#ff6194" d="M 170.5,50.5 C 198.03,51.8216 225.53,51.8216 253,50.5C 253.852,51.5707 254.685,52.5707 255.5,53.5C 255.5,60.5 255.5,67.5 255.5,74.5C 244.252,74.8207 233.085,74.4874 222,73.5C 221.536,74.0944 221.369,74.7611 221.5,75.5C 219.241,71.5702 216.241,68.2369 212.5,65.5C 207.027,61.0517 200.693,58.2183 193.5,57C 184.762,56.8099 176.095,55.9765 167.5,54.5C 168.521,53.0986 169.521,51.7653 170.5,50.5 Z"/></g>
<g><path style="opacity:1" fill="#ff7ba5" d="M 42.5,65.5 C 99.1667,66.8333 155.833,66.8333 212.5,65.5C 216.241,68.2369 219.241,71.5702 221.5,75.5C 223.263,79.9782 224.263,84.6449 224.5,89.5C 220.051,90.4098 215.718,90.7431 211.5,90.5C 209.5,90.5 207.5,90.5 205.5,90.5C 205.567,89.0413 205.234,87.7079 204.5,86.5C 200.66,78.9051 194.327,75.4051 185.5,76C 143.467,73.6751 101.467,74.0085 59.5,77C 53.8999,79.3731 50.5666,83.5398 49.5,89.5C 45.6002,90.4299 41.6002,90.7633 37.5,90.5C 36.4281,93.7664 36.0947,99.7664 36.5,108.5C 35.5064,99.3483 35.1731,90.015 35.5,80.5C 34.5,80.5 33.5,80.5 32.5,80.5C 34.0835,74.333 37.4168,69.333 42.5,65.5 Z"/></g>
<g><path style="opacity:1" fill="#ff5c90" d="M 204.5,86.5 C 184.5,85.8333 164.5,85.1667 144.5,84.5C 144.5,83.1667 144.5,81.8333 144.5,80.5C 143.209,80.2627 142.209,80.596 141.5,81.5C 136.764,82.6348 132.097,83.9681 127.5,85.5C 129.272,96.468 130.939,107.468 132.5,118.5C 131.037,115.797 130.204,112.797 130,109.5C 129.667,111.167 129.333,112.833 129,114.5C 127.989,115.337 126.822,115.67 125.5,115.5C 125.66,113.801 125.494,112.134 125,110.5C 124.826,115.351 124.326,120.018 123.5,124.5C 119.5,125.833 115.5,125.833 111.5,124.5C 112.833,124.5 114.167,124.5 115.5,124.5C 116.487,119.695 116.821,114.695 116.5,109.5C 114.5,109.5 112.5,109.5 110.5,109.5C 110.216,111.415 110.549,113.081 111.5,114.5C 111.5,117.167 111.5,119.833 111.5,122.5C 110.691,120.708 110.191,118.708 110,116.5C 108.951,118.618 107.451,120.284 105.5,121.5C 104.445,111.172 103.445,100.838 102.5,90.5C 98.9581,90.1872 95.6248,90.5206 92.5,91.5C 91.6618,91.8417 91.3284,92.5084 91.5,93.5C 77.7448,95.4554 63.7448,96.122 49.5,95.5C 49.5,93.5 49.5,91.5 49.5,89.5C 50.5666,83.5398 53.8999,79.3731 59.5,77C 101.467,74.0085 143.467,73.6751 185.5,76C 194.327,75.4051 200.66,78.9051 204.5,86.5 Z"/></g>
<g><path style="opacity:1" fill="#fffcfc" d="M 32.5,80.5 C 33.5,80.5 34.5,80.5 35.5,80.5C 35.1731,90.015 35.5064,99.3483 36.5,108.5C 36.2815,118.569 36.9482,128.569 38.5,138.5C 42.8333,138.5 47.1667,138.5 51.5,138.5C 62.0178,139.502 71.1844,143.502 79,150.5C 80.0536,154.655 79.2202,158.322 76.5,161.5C 69.2605,167.12 61.2605,171.12 52.5,173.5C 45.2015,174.35 37.8681,174.683 30.5,174.5C 30.4138,167.963 29.7472,161.63 28.5,155.5C 28.1635,147.462 27.4968,139.462 26.5,131.5C 26.1916,127.64 25.5249,123.974 24.5,120.5C 24.5,119.5 24.5,118.5 24.5,117.5C 23.2745,109.147 21.9412,100.814 20.5,92.5C 19.9426,90.0509 19.9426,87.7175 20.5,85.5C 24.7628,84.1981 28.7628,82.5314 32.5,80.5 Z"/></g>
<g><path style="opacity:1" fill="#fffbfc" d="M 141.5,81.5 C 143.157,90.622 144.157,99.9554 144.5,109.5C 144.5,110.833 144.5,112.167 144.5,113.5C 144.194,116.385 144.527,119.052 145.5,121.5C 145.532,127.189 145.866,132.855 146.5,138.5C 159.32,137.077 171.32,139.577 182.5,146C 186.903,148.623 188.569,152.457 187.5,157.5C 179.278,166.616 168.945,172.116 156.5,174C 150.509,174.499 144.509,174.666 138.5,174.5C 138.495,170.466 138.162,166.466 137.5,162.5C 137.21,155.984 136.543,149.65 135.5,143.5C 135.495,139.466 135.162,135.466 134.5,131.5C 134.192,127.64 133.525,123.974 132.5,120.5C 132.5,119.833 132.5,119.167 132.5,118.5C 130.939,107.468 129.272,96.468 127.5,85.5C 132.097,83.9681 136.764,82.6348 141.5,81.5 Z"/></g>
<g><path style="opacity:1" fill="#ff73a0" d="M 49.5,89.5 C 49.5,91.5 49.5,93.5 49.5,95.5C 47.96,109.304 47.2933,123.304 47.5,137.5C 49.099,137.232 50.4324,137.566 51.5,138.5C 47.1667,138.5 42.8333,138.5 38.5,138.5C 36.9482,128.569 36.2815,118.569 36.5,108.5C 36.0947,99.7664 36.4281,93.7664 37.5,90.5C 41.6002,90.7633 45.6002,90.4299 49.5,89.5 Z"/></g>
<g><path style="opacity:1" fill="#ff588d" d="M 144.5,84.5 C 164.5,85.1667 184.5,85.8333 204.5,86.5C 205.234,87.7079 205.567,89.0413 205.5,90.5C 203.833,90.5 202.167,90.5 200.5,90.5C 202.495,107.127 204.162,123.794 205.5,140.5C 204.292,141.234 202.959,141.567 201.5,141.5C 201.5,143.167 201.5,144.833 201.5,146.5C 200.202,140.879 199.202,135.212 198.5,129.5C 196.735,128.539 194.735,128.205 192.5,128.5C 192.527,126.801 193.194,125.467 194.5,124.5C 195.5,124.5 196.5,124.5 197.5,124.5C 197.249,119.493 196.916,114.493 196.5,109.5C 194.833,109.5 193.167,109.5 191.5,109.5C 190.833,110.833 190.167,112.167 189.5,113.5C 189.5,112.5 189.5,111.5 189.5,110.5C 187.5,110.5 185.5,110.5 183.5,110.5C 183.5,111.5 183.5,112.5 183.5,113.5C 183.719,114.675 183.386,115.675 182.5,116.5C 172.419,112.862 162.252,109.528 152,106.5C 148.366,107.635 145.866,109.968 144.5,113.5C 144.5,112.167 144.5,110.833 144.5,109.5C 144.5,101.167 144.5,92.8333 144.5,84.5 Z"/></g>
<g><path style="opacity:1" fill="#ff73a0" d="M 224.5,89.5 C 225.515,95.9872 226.182,102.654 226.5,109.5C 226.5,114.5 226.5,119.5 226.5,124.5C 228.167,124.5 229.833,124.5 231.5,124.5C 230.432,125.434 229.099,125.768 227.5,125.5C 227.5,126.833 227.5,128.167 227.5,129.5C 225.167,129.5 222.833,129.5 220.5,129.5C 220.19,132.713 220.523,135.713 221.5,138.5C 221.691,146.84 222.024,155.174 222.5,163.5C 221.549,164.919 221.216,166.585 221.5,168.5C 216.833,168.5 212.167,168.5 207.5,168.5C 207.5,164.833 207.5,161.167 207.5,157.5C 208.468,159.607 208.802,161.941 208.5,164.5C 211.167,164.5 213.833,164.5 216.5,164.5C 215.023,139.82 213.356,115.153 211.5,90.5C 215.718,90.7431 220.051,90.4098 224.5,89.5 Z"/></g>
<g><path style="opacity:1" fill="#ff578d" d="M -0.5,85.5 C 5.83333,85.5 12.1667,85.5 18.5,85.5C 18.1706,88.2282 18.8372,90.5615 20.5,92.5C 21.9412,100.814 23.2745,109.147 24.5,117.5C 22.9318,115.189 22.0984,112.522 22,109.5C 21.5045,111.473 21.3379,113.473 21.5,115.5C 14.1667,115.5 6.83333,115.5 -0.5,115.5C -0.5,105.5 -0.5,95.5 -0.5,85.5 Z"/></g>
<g><path style="opacity:1" fill="#fff8fa" d="M 105.5,121.5 C 106.145,132.553 107.145,143.553 108.5,154.5C 108.5,157.833 108.5,161.167 108.5,164.5C 105.833,164.5 103.167,164.5 100.5,164.5C 99.5179,153.318 98.1846,142.318 96.5,131.5C 95.5931,123.019 94.5931,114.686 93.5,106.5C 93.2491,101.493 92.9157,96.4932 92.5,91.5C 95.6248,90.5206 98.9581,90.1872 102.5,90.5C 103.445,100.838 104.445,111.172 105.5,121.5 Z"/></g>
<g><path style="opacity:1" fill="#fff8fa" d="M 205.5,90.5 C 207.5,90.5 209.5,90.5 211.5,90.5C 213.356,115.153 215.023,139.82 216.5,164.5C 213.833,164.5 211.167,164.5 208.5,164.5C 208.802,161.941 208.468,159.607 207.5,157.5C 207.806,154.615 207.473,151.948 206.5,149.5C 206.736,146.391 206.403,143.391 205.5,140.5C 204.162,123.794 202.495,107.127 200.5,90.5C 202.167,90.5 203.833,90.5 205.5,90.5 Z"/></g>
<g><path style="opacity:1" fill="#ffa4c1" d="M 141.5,81.5 C 142.209,80.596 143.209,80.2627 144.5,80.5C 144.5,81.8333 144.5,83.1667 144.5,84.5C 144.5,92.8333 144.5,101.167 144.5,109.5C 144.157,99.9554 143.157,90.622 141.5,81.5 Z"/></g>
<g><path style="opacity:1" fill="#ff578d" d="M 255.5,74.5 C 255.5,88.1667 255.5,101.833 255.5,115.5C 248.167,115.5 240.833,115.5 233.5,115.5C 233.66,113.801 233.494,112.134 233,110.5C 232.826,115.351 232.326,120.018 231.5,124.5C 231.5,119.5 231.5,114.5 231.5,109.5C 229.833,109.5 228.167,109.5 226.5,109.5C 226.182,102.654 225.515,95.9872 224.5,89.5C 224.263,84.6449 223.263,79.9782 221.5,75.5C 221.369,74.7611 221.536,74.0944 222,73.5C 233.085,74.4874 244.252,74.8207 255.5,74.5 Z"/></g>
<g><path style="opacity:1" fill="#ff8baf" d="M 92.5,91.5 C 92.9157,96.4932 93.2491,101.493 93.5,106.5C 92.2911,102.382 91.6245,98.0485 91.5,93.5C 91.3284,92.5084 91.6618,91.8417 92.5,91.5 Z"/></g>
<g><path style="opacity:1" fill="#fff3f7" d="M 83.5,109.5 C 85.4147,109.216 87.0813,109.549 88.5,110.5C 89.2295,115.13 89.5628,119.797 89.5,124.5C 87.8333,124.5 86.1667,124.5 84.5,124.5C 83.746,119.537 83.4126,114.537 83.5,109.5 Z"/></g>
<g><path style="opacity:1" fill="#fffbfc" d="M 115.5,124.5 C 114.167,124.5 112.833,124.5 111.5,124.5C 111.5,123.833 111.5,123.167 111.5,122.5C 111.5,119.833 111.5,117.167 111.5,114.5C 111.5,113.167 111.5,111.833 111.5,110.5C 112.833,110.5 114.167,110.5 115.5,110.5C 115.5,115.167 115.5,119.833 115.5,124.5 Z"/></g>
<g><path style="opacity:1" fill="#fffdfd" d="M 118.5,110.5 C 119.833,110.5 121.167,110.5 122.5,110.5C 122.5,115.167 122.5,119.833 122.5,124.5C 121.167,124.5 119.833,124.5 118.5,124.5C 118.5,119.833 118.5,115.167 118.5,110.5 Z"/></g>
<g><path style="opacity:1" fill="#fff7f9" d="M 191.5,109.5 C 193.167,109.5 194.833,109.5 196.5,109.5C 196.916,114.493 197.249,119.493 197.5,124.5C 196.5,124.5 195.5,124.5 194.5,124.5C 193.235,123.486 192.569,121.986 192.5,120C 192.001,116.51 191.668,113.01 191.5,109.5 Z"/></g>
<g><path style="opacity:1" fill="#ffbad0" d="M 224.5,110.5 C 222.833,110.5 221.167,110.5 219.5,110.5C 219.5,111.5 219.5,112.5 219.5,113.5C 218.566,112.432 218.232,111.099 218.5,109.5C 220.735,109.205 222.735,109.539 224.5,110.5 Z"/></g>
<g><path style="opacity:1" fill="#fff8fa" d="M 224.5,110.5 C 224.5,115.167 224.5,119.833 224.5,124.5C 222.833,124.5 221.167,124.5 219.5,124.5C 219.5,120.833 219.5,117.167 219.5,113.5C 219.5,112.5 219.5,111.5 219.5,110.5C 221.167,110.5 222.833,110.5 224.5,110.5 Z"/></g>
<g><path style="opacity:1" fill="#fff7f9" d="M 226.5,109.5 C 228.167,109.5 229.833,109.5 231.5,109.5C 231.5,114.5 231.5,119.5 231.5,124.5C 229.833,124.5 228.167,124.5 226.5,124.5C 226.5,119.5 226.5,114.5 226.5,109.5 Z"/></g>
<g><path style="opacity:1" fill="#ffd7e3" d="M 118.5,110.5 C 119.919,109.549 121.585,109.216 123.5,109.5C 123.5,114.5 123.5,119.5 123.5,124.5C 123.167,124.5 122.833,124.5 122.5,124.5C 122.5,119.833 122.5,115.167 122.5,110.5C 121.167,110.5 119.833,110.5 118.5,110.5 Z"/></g>
<g><path style="opacity:1" fill="#ff5188" d="M 132.5,118.5 C 132.5,119.167 132.5,119.833 132.5,120.5C 132.116,124.489 132.783,128.155 134.5,131.5C 135.162,135.466 135.495,139.466 135.5,143.5C 135.665,146.518 135.498,149.518 135,152.5C 132.799,149.879 130.965,147.046 129.5,144C 127.866,143.506 126.199,143.34 124.5,143.5C 124.819,138.637 124.486,133.97 123.5,129.5C 119.833,129.5 116.167,129.5 112.5,129.5C 113.089,136.485 113.422,143.485 113.5,150.5C 113.5,152.167 113.5,153.833 113.5,155.5C 111.784,155.371 110.117,155.038 108.5,154.5C 107.145,143.553 106.145,132.553 105.5,121.5C 107.451,120.284 108.951,118.618 110,116.5C 110.191,118.708 110.691,120.708 111.5,122.5C 111.5,123.167 111.5,123.833 111.5,124.5C 115.5,125.833 119.5,125.833 123.5,124.5C 124.326,120.018 124.826,115.351 125,110.5C 125.494,112.134 125.66,113.801 125.5,115.5C 126.822,115.67 127.989,115.337 129,114.5C 129.333,112.833 129.667,111.167 130,109.5C 130.204,112.797 131.037,115.797 132.5,118.5 Z"/></g>
<g><path style="opacity:1" fill="#ff5289" d="M 91.5,93.5 C 91.6245,98.0485 92.2911,102.382 93.5,106.5C 93.5,107.5 93.5,108.5 93.5,109.5C 91.7085,109.366 90.0418,109.699 88.5,110.5C 87.0813,109.549 85.4147,109.216 83.5,109.5C 82.7321,110.263 82.2321,111.263 82,112.5C 81.7216,111.584 81.2216,110.918 80.5,110.5C 78.8333,110.5 77.1667,110.5 75.5,110.5C 74.8365,112.042 74.1698,113.709 73.5,115.5C 69.4927,116.664 65.9927,118.664 63,121.5C 61.8485,125.829 62.6819,129.662 65.5,133C 66.6667,133.167 67.8333,133.333 69,133.5C 72.1406,132.678 75.3073,132.011 78.5,131.5C 78.2627,132.791 78.596,133.791 79.5,134.5C 81.4241,143.787 83.0907,153.12 84.5,162.5C 81.6424,163.885 78.9758,163.552 76.5,161.5C 79.2202,158.322 80.0536,154.655 79,150.5C 71.1844,143.502 62.0178,139.502 51.5,138.5C 50.4324,137.566 49.099,137.232 47.5,137.5C 47.2933,123.304 47.96,109.304 49.5,95.5C 63.7448,96.122 77.7448,95.4554 91.5,93.5 Z"/></g>
<g><path style="opacity:1" fill="#ff90b2" d="M 83.5,109.5 C 83.4126,114.537 83.746,119.537 84.5,124.5C 83.8333,124.5 83.1667,124.5 82.5,124.5C 82.154,119.784 81.4873,115.117 80.5,110.5C 81.2216,110.918 81.7216,111.584 82,112.5C 82.2321,111.263 82.7321,110.263 83.5,109.5 Z"/></g>
<g><path style="opacity:1" fill="#ff719e" d="M 93.5,106.5 C 94.5931,114.686 95.5931,123.019 96.5,131.5C 95.8347,129.302 95.1681,126.969 94.5,124.5C 91.7163,125.392 89.0496,126.558 86.5,128C 88.0581,128.21 89.3915,128.71 90.5,129.5C 88.1667,129.5 85.8333,129.5 83.5,129.5C 81.2188,129.077 79.5521,129.744 78.5,131.5C 75.3073,132.011 72.1406,132.678 69,133.5C 67.8333,133.333 66.6667,133.167 65.5,133C 62.6819,129.662 61.8485,125.829 63,121.5C 65.9927,118.664 69.4927,116.664 73.5,115.5C 74.1698,113.709 74.8365,112.042 75.5,110.5C 76.1667,115.5 76.8333,120.5 77.5,125.5C 79.4147,125.784 81.0813,125.451 82.5,124.5C 83.1667,124.5 83.8333,124.5 84.5,124.5C 86.1667,124.5 87.8333,124.5 89.5,124.5C 89.5628,119.797 89.2295,115.13 88.5,110.5C 90.0418,109.699 91.7085,109.366 93.5,109.5C 93.5,108.5 93.5,107.5 93.5,106.5 Z"/></g>
<g><path style="opacity:1" fill="#fff2f6" d="M 75.5,110.5 C 77.1667,110.5 78.8333,110.5 80.5,110.5C 81.4873,115.117 82.154,119.784 82.5,124.5C 81.0813,125.451 79.4147,125.784 77.5,125.5C 76.8333,120.5 76.1667,115.5 75.5,110.5 Z"/></g>
<g><path style="opacity:1" fill="#ffcddc" d="M 115.5,124.5 C 115.5,119.833 115.5,115.167 115.5,110.5C 114.167,110.5 112.833,110.5 111.5,110.5C 111.5,111.833 111.5,113.167 111.5,114.5C 110.549,113.081 110.216,111.415 110.5,109.5C 112.5,109.5 114.5,109.5 116.5,109.5C 116.821,114.695 116.487,119.695 115.5,124.5 Z"/></g>
<g><path style="opacity:1" fill="#ff709d" d="M 183.5,113.5 C 184.989,117.236 185.656,121.236 185.5,125.5C 187.167,125.5 188.833,125.5 190.5,125.5C 190.167,121.5 189.833,117.5 189.5,113.5C 190.167,112.167 190.833,110.833 191.5,109.5C 191.668,113.01 192.001,116.51 192.5,120C 192.569,121.986 193.235,123.486 194.5,124.5C 193.194,125.467 192.527,126.801 192.5,128.5C 194.735,128.205 196.735,128.539 198.5,129.5C 194.833,129.5 191.167,129.5 187.5,129.5C 187.5,131.5 187.5,133.5 187.5,135.5C 175.706,129.962 163.372,125.462 150.5,122C 148.714,121.215 147.214,120.049 146,118.5C 145.517,119.448 145.351,120.448 145.5,121.5C 144.527,119.052 144.194,116.385 144.5,113.5C 145.866,109.968 148.366,107.635 152,106.5C 162.252,109.528 172.419,112.862 182.5,116.5C 183.386,115.675 183.719,114.675 183.5,113.5 Z"/></g>
<g><path style="opacity:1" fill="#fff3f7" d="M 189.5,113.5 C 189.833,117.5 190.167,121.5 190.5,125.5C 188.833,125.5 187.167,125.5 185.5,125.5C 185.656,121.236 184.989,117.236 183.5,113.5C 183.5,112.5 183.5,111.5 183.5,110.5C 185.5,110.5 187.5,110.5 189.5,110.5C 189.5,111.5 189.5,112.5 189.5,113.5 Z"/></g>
<g><path style="opacity:1" fill="#ff5188" d="M 187.5,135.5 C 189.212,142.061 190.546,148.728 191.5,155.5C 190.842,154.602 190.176,153.602 189.5,152.5C 188.83,154.291 188.163,155.958 187.5,157.5C 188.569,152.457 186.903,148.623 182.5,146C 171.32,139.577 159.32,137.077 146.5,138.5C 145.866,132.855 145.532,127.189 145.5,121.5C 145.351,120.448 145.517,119.448 146,118.5C 147.214,120.049 148.714,121.215 150.5,122C 163.372,125.462 175.706,129.962 187.5,135.5 Z"/></g>
<g><path style="opacity:1" fill="#ff86aa" d="M 24.5,120.5 C 25.5249,123.974 26.1916,127.64 26.5,131.5C 24.783,128.155 24.1164,124.489 24.5,120.5 Z"/></g>
<g><path style="opacity:1" fill="#ff8bae" d="M 132.5,120.5 C 133.525,123.974 134.192,127.64 134.5,131.5C 132.783,128.155 132.116,124.489 132.5,120.5 Z"/></g>
<g><path style="opacity:1" fill="#ffafc8" d="M 83.5,129.5 C 82.4324,130.434 81.099,130.768 79.5,130.5C 79.5,131.833 79.5,133.167 79.5,134.5C 78.596,133.791 78.2627,132.791 78.5,131.5C 79.5521,129.744 81.2188,129.077 83.5,129.5 Z"/></g>
<g><path style="opacity:1" fill="#fff8fa" d="M 83.5,129.5 C 85.8333,129.5 88.1667,129.5 90.5,129.5C 92.6735,142.408 94.0068,155.408 94.5,168.5C 91.8239,169.008 89.1572,169.175 86.5,169C 85.8828,166.723 85.2161,164.556 84.5,162.5C 83.0907,153.12 81.4241,143.787 79.5,134.5C 79.5,133.167 79.5,131.833 79.5,130.5C 81.099,130.768 82.4324,130.434 83.5,129.5 Z"/></g>
<g><path style="opacity:1" fill="#fff9fb" d="M 198.5,129.5 C 199.202,135.212 200.202,140.879 201.5,146.5C 201.5,149.167 201.5,151.833 201.5,154.5C 201.116,158.489 201.783,162.155 203.5,165.5C 203.5,166.5 203.5,167.5 203.5,168.5C 200.455,168.508 197.455,168.841 194.5,169.5C 193.751,164.752 192.751,160.085 191.5,155.5C 190.546,148.728 189.212,142.061 187.5,135.5C 187.5,133.5 187.5,131.5 187.5,129.5C 191.167,129.5 194.833,129.5 198.5,129.5 Z"/></g>
<g><path style="opacity:1" fill="#fffcfd" d="M 123.5,129.5 C 123.5,142.5 123.5,155.5 123.5,168.5C 120.833,168.5 118.167,168.5 115.5,168.5C 115.795,166.265 115.461,164.265 114.5,162.5C 114.817,158.298 114.483,154.298 113.5,150.5C 113.422,143.485 113.089,136.485 112.5,129.5C 116.167,129.5 119.833,129.5 123.5,129.5 Z"/></g>
<g><path style="opacity:1" fill="#fffbfc" d="M 231.5,169.5 C 228.833,169.5 226.167,169.5 223.5,169.5C 223.483,167.435 223.15,165.435 222.5,163.5C 222.024,155.174 221.691,146.84 221.5,138.5C 221.5,135.833 221.5,133.167 221.5,130.5C 224.833,130.5 228.167,130.5 231.5,130.5C 231.5,143.5 231.5,156.5 231.5,169.5 Z"/></g>
<g><path style="opacity:1" fill="#ffb8ce" d="M 227.5,129.5 C 229.167,129.5 230.833,129.5 232.5,129.5C 232.5,139.5 232.5,149.5 232.5,159.5C 232.813,163.042 232.479,166.375 231.5,169.5C 231.5,156.5 231.5,143.5 231.5,130.5C 228.167,130.5 224.833,130.5 221.5,130.5C 221.5,133.167 221.5,135.833 221.5,138.5C 220.523,135.713 220.19,132.713 220.5,129.5C 222.833,129.5 225.167,129.5 227.5,129.5 Z"/></g>
<g><path style="opacity:1" fill="#ff4a84" d="M 24.5,117.5 C 24.5,118.5 24.5,119.5 24.5,120.5C 24.1164,124.489 24.783,128.155 26.5,131.5C 27.4968,139.462 28.1635,147.462 28.5,155.5C 28.5,159.167 28.5,162.833 28.5,166.5C 27.71,165.391 27.21,164.058 27,162.5C 17.9172,163.485 8.75058,163.818 -0.5,163.5C -0.5,147.5 -0.5,131.5 -0.5,115.5C 6.83333,115.5 14.1667,115.5 21.5,115.5C 21.3379,113.473 21.5045,111.473 22,109.5C 22.0984,112.522 22.9318,115.189 24.5,117.5 Z"/></g>
<g><path style="opacity:1" fill="#ff4983" d="M 255.5,115.5 C 255.5,131.5 255.5,147.5 255.5,163.5C 248.492,163.666 241.492,163.5 234.5,163C 233.915,161.698 233.249,160.531 232.5,159.5C 232.5,149.5 232.5,139.5 232.5,129.5C 230.833,129.5 229.167,129.5 227.5,129.5C 227.5,128.167 227.5,126.833 227.5,125.5C 229.099,125.768 230.432,125.434 231.5,124.5C 232.326,120.018 232.826,115.351 233,110.5C 233.494,112.134 233.66,113.801 233.5,115.5C 240.833,115.5 248.167,115.5 255.5,115.5 Z"/></g>
<g><path style="opacity:1" fill="#ff739f" d="M 123.5,129.5 C 124.486,133.97 124.819,138.637 124.5,143.5C 126.199,143.34 127.866,143.506 129.5,144C 130.965,147.046 132.799,149.879 135,152.5C 135.498,149.518 135.665,146.518 135.5,143.5C 136.543,149.65 137.21,155.984 137.5,162.5C 133.65,160.996 130.317,158.663 127.5,155.5C 126.522,155.977 125.689,156.643 125,157.5C 124.824,161.688 124.324,165.688 123.5,169.5C 123.5,169.167 123.5,168.833 123.5,168.5C 123.5,155.5 123.5,142.5 123.5,129.5 Z"/></g>
<g><path style="opacity:1" fill="#ff5187" d="M 45.5,148.5 C 51.4432,149.703 57.1098,151.703 62.5,154.5C 58.5757,158.802 53.9091,162.136 48.5,164.5C 46.7595,159.322 45.7595,153.988 45.5,148.5 Z"/></g>
<g><path style="opacity:1" fill="#ff4881" d="M 96.5,131.5 C 98.1846,142.318 99.5179,153.318 100.5,164.5C 103.167,164.5 105.833,164.5 108.5,164.5C 110.114,162.925 112.114,162.259 114.5,162.5C 114.5,164.833 114.5,167.167 114.5,169.5C 117.5,169.5 120.5,169.5 123.5,169.5C 124.324,165.688 124.824,161.688 125,157.5C 125.689,156.643 126.522,155.977 127.5,155.5C 130.317,158.663 133.65,160.996 137.5,162.5C 138.162,166.466 138.495,170.466 138.5,174.5C 144.509,174.666 150.509,174.499 156.5,174C 168.945,172.116 179.278,166.616 187.5,157.5C 188.163,155.958 188.83,154.291 189.5,152.5C 190.176,153.602 190.842,154.602 191.5,155.5C 192.751,160.085 193.751,164.752 194.5,169.5C 197.455,168.841 200.455,168.508 203.5,168.5C 203.5,167.5 203.5,166.5 203.5,165.5C 203.192,161.64 202.525,157.974 201.5,154.5C 201.5,151.833 201.5,149.167 201.5,146.5C 201.5,144.833 201.5,143.167 201.5,141.5C 202.959,141.567 204.292,141.234 205.5,140.5C 206.403,143.391 206.736,146.391 206.5,149.5C 206.666,158.173 206.5,166.84 206,175.5C 205.817,178.365 205.317,181.031 204.5,183.5C 204.5,181.833 204.5,180.167 204.5,178.5C 153.167,178.5 101.833,178.5 50.5,178.5C 50.5,180.167 50.5,181.833 50.5,183.5C 49.5233,180.713 49.19,177.713 49.5,174.5C 50.791,174.737 51.791,174.404 52.5,173.5C 61.2605,171.12 69.2605,167.12 76.5,161.5C 78.9758,163.552 81.6424,163.885 84.5,162.5C 85.2161,164.556 85.8828,166.723 86.5,169C 89.1572,169.175 91.8239,169.008 94.5,168.5C 94.0068,155.408 92.6735,142.408 90.5,129.5C 89.3915,128.71 88.0581,128.21 86.5,128C 89.0496,126.558 91.7163,125.392 94.5,124.5C 95.1681,126.969 95.8347,129.302 96.5,131.5 Z"/></g>
<g><path style="opacity:1" fill="#ff709d" d="M 113.5,150.5 C 114.483,154.298 114.817,158.298 114.5,162.5C 112.114,162.259 110.114,162.925 108.5,164.5C 108.5,161.167 108.5,157.833 108.5,154.5C 110.117,155.038 111.784,155.371 113.5,155.5C 113.5,153.833 113.5,152.167 113.5,150.5 Z"/></g>
<g><path style="opacity:1" fill="#ff93b5" d="M 157.5,149.5 C 156.5,149.5 155.5,149.5 154.5,149.5C 154.5,151.833 154.5,154.167 154.5,156.5C 153.527,154.052 153.194,151.385 153.5,148.5C 155.099,148.232 156.432,148.566 157.5,149.5 Z"/></g>
<g><path style="opacity:1" fill="#ff4f86" d="M 157.5,149.5 C 162.054,150.574 166.388,152.241 170.5,154.5C 166.576,158.802 161.909,162.136 156.5,164.5C 155.205,161.988 154.539,159.321 154.5,156.5C 154.5,154.167 154.5,151.833 154.5,149.5C 155.5,149.5 156.5,149.5 157.5,149.5 Z"/></g>
<g><path style="opacity:1" fill="#ffc5d6" d="M 201.5,154.5 C 202.525,157.974 203.192,161.64 203.5,165.5C 201.783,162.155 201.116,158.489 201.5,154.5 Z"/></g>
<g><path style="opacity:1" fill="#ff5e91" d="M 206.5,149.5 C 207.473,151.948 207.806,154.615 207.5,157.5C 207.5,161.167 207.5,164.833 207.5,168.5C 212.167,168.5 216.833,168.5 221.5,168.5C 221.216,166.585 221.549,164.919 222.5,163.5C 223.15,165.435 223.483,167.435 223.5,169.5C 226.167,169.5 228.833,169.5 231.5,169.5C 229.735,170.461 227.735,170.795 225.5,170.5C 226.771,186.383 221.438,199.383 209.5,209.5C 208.167,209.833 206.833,210.167 205.5,210.5C 153.179,210.496 100.846,210.496 48.5,210.5C 47.391,210.443 46.391,210.11 45.5,209.5C 40.0978,205.592 35.9311,200.592 33,194.5C 30.5229,185.328 29.0229,175.994 28.5,166.5C 28.5,162.833 28.5,159.167 28.5,155.5C 29.7472,161.63 30.4138,167.963 30.5,174.5C 37.8681,174.683 45.2015,174.35 52.5,173.5C 51.791,174.404 50.791,174.737 49.5,174.5C 49.19,177.713 49.5233,180.713 50.5,183.5C 51.469,189.308 54.8024,193.141 60.5,195C 104.492,198.266 148.492,198.266 192.5,195C 198.98,193.685 202.98,189.852 204.5,183.5C 205.317,181.031 205.817,178.365 206,175.5C 206.5,166.84 206.666,158.173 206.5,149.5 Z"/></g>
<g><path style="opacity:1" fill="#ffdbe6" d="M 114.5,162.5 C 115.461,164.265 115.795,166.265 115.5,168.5C 118.167,168.5 120.833,168.5 123.5,168.5C 123.5,168.833 123.5,169.167 123.5,169.5C 120.5,169.5 117.5,169.5 114.5,169.5C 114.5,167.167 114.5,164.833 114.5,162.5 Z"/></g>
<g><path style="opacity:0.997" fill="#ff3d7a" d="M 232.5,159.5 C 233.249,160.531 233.915,161.698 234.5,163C 241.492,163.5 248.492,163.666 255.5,163.5C 255.5,179.5 255.5,195.5 255.5,211.5C 254.833,212.833 254.167,214.167 253.5,215.5C 252.637,216.463 251.97,216.463 251.5,215.5C 252.074,213.941 252.74,212.441 253.5,211C 253,210.5 252.5,210 252,209.5C 237.587,210.759 223.42,210.759 209.5,209.5C 221.438,199.383 226.771,186.383 225.5,170.5C 227.735,170.795 229.735,170.461 231.5,169.5C 232.479,166.375 232.813,163.042 232.5,159.5 Z"/></g>
<g><path style="opacity:0.997" fill="#ff3d7a" d="M 28.5,166.5 C 29.0229,175.994 30.5229,185.328 33,194.5C 35.9311,200.592 40.0978,205.592 45.5,209.5C 31.3034,210.81 17.1368,210.81 3,209.5C 2.31312,211.568 2.47978,213.568 3.5,215.5C 3.04311,216.298 2.37644,216.631 1.5,216.5C 0.975875,214.694 0.309209,213.028 -0.5,211.5C -0.5,195.5 -0.5,179.5 -0.5,163.5C 8.75058,163.818 17.9172,163.485 27,162.5C 27.21,164.058 27.71,165.391 28.5,166.5 Z"/></g>
<g><path style="opacity:1" fill="#ff3e7a" d="M 204.5,183.5 C 202.98,189.852 198.98,193.685 192.5,195C 148.492,198.266 104.492,198.266 60.5,195C 54.8024,193.141 51.469,189.308 50.5,183.5C 50.5,181.833 50.5,180.167 50.5,178.5C 101.833,178.5 153.167,178.5 204.5,178.5C 204.5,180.167 204.5,181.833 204.5,183.5 Z"/></g>
<g><path style="opacity:0.993" fill="#ff3473" d="M 45.5,209.5 C 46.391,210.11 47.391,210.443 48.5,210.5C 52.6978,213.054 57.3644,214.554 62.5,215C 107.535,218.626 152.535,218.293 197.5,214C 200.476,213.295 203.142,212.129 205.5,210.5C 206.833,210.167 208.167,209.833 209.5,209.5C 223.42,210.759 237.587,210.759 252,209.5C 252.5,210 253,210.5 253.5,211C 252.74,212.441 252.074,213.941 251.5,215.5C 251.97,216.463 252.637,216.463 253.5,215.5C 250.844,226.147 245.178,234.814 236.5,241.5C 236.062,241.565 235.728,241.399 235.5,241C 237.329,239.887 238.163,238.387 238,236.5C 164.333,237.833 90.6667,237.833 17,236.5C 16.8374,238.387 17.6707,239.887 19.5,241C 19.2716,241.399 18.9382,241.565 18.5,241.5C 10.1039,235.047 4.43724,226.713 1.5,216.5C 2.37644,216.631 3.04311,216.298 3.5,215.5C 2.47978,213.568 2.31312,211.568 3,209.5C 17.1368,210.81 31.3034,210.81 45.5,209.5 Z"/></g>
<g><path style="opacity:1" fill="#ff598d" d="M 205.5,210.5 C 203.142,212.129 200.476,213.295 197.5,214C 152.535,218.293 107.535,218.626 62.5,215C 57.3644,214.554 52.6978,213.054 48.5,210.5C 100.846,210.496 153.179,210.496 205.5,210.5 Z"/></g>
<g><path style="opacity:0.995" fill="#ff2f70" d="M 236.5,241.5 C 229.483,248.509 221.15,253.175 211.5,255.5C 155.5,255.5 99.5,255.5 43.5,255.5C 33.8503,253.175 25.517,248.509 18.5,241.5C 18.9382,241.565 19.2716,241.399 19.5,241C 17.6707,239.887 16.8374,238.387 17,236.5C 90.6667,237.833 164.333,237.833 238,236.5C 238.163,238.387 237.329,239.887 235.5,241C 235.728,241.399 236.062,241.565 236.5,241.5 Z"/></g>
</svg>
