<?xml version="1.0" encoding="UTF-8"?>
<!DOCTYPE svg PUBLIC "-//W3C//DTD SVG 1.1//EN" "http://www.w3.org/Graphics/SVG/1.1/DTD/svg11.dtd">
<svg xmlns="http://www.w3.org/2000/svg" version="1.1" width="500px" height="500px" style="shape-rendering:geometricPrecision; text-rendering:geometricPrecision; image-rendering:optimizeQuality; fill-rule:evenodd; clip-rule:evenodd" xmlns:xlink="http://www.w3.org/1999/xlink">
<g><path style="opacity:0.984" fill="#fe6698" d="M 160.5,38.5 C 168.678,38.5073 175.178,41.8406 180,48.5C 194.958,69.5729 208.791,91.4062 221.5,114C 239.74,114.174 257.907,114.674 276,115.5C 289.086,92.3179 303.42,69.9845 319,48.5C 327.018,39.476 336.851,36.976 348.5,41C 365.487,52.1588 367.987,65.9921 356,82.5C 347.833,93.5 339.667,104.5 331.5,115.5C 354.836,116.933 378.169,118.433 401.5,120C 422.019,122.886 438.186,132.719 450,149.5C 453.815,156.132 456.815,163.132 459,170.5C 468.132,243.417 468.799,316.417 461,389.5C 455.491,416.695 439.658,434.862 413.5,444C 401.947,446.232 390.28,447.566 378.5,448C 292.167,454 205.834,454 119.5,448C 99.6064,449.027 81.2731,444.36 64.5,434C 50.4758,423.128 41.6425,408.961 38,391.5C 30.1747,317.417 30.8414,243.417 40,169.5C 48.5616,141.299 67.395,124.799 96.5,120C 120.142,118.235 143.808,116.901 167.5,116C 156.137,101.443 145.637,86.2766 136,70.5C 134.223,52.1208 142.389,41.4541 160.5,38.5 Z M 229.5,166.5 C 282.208,166.613 334.875,168.113 387.5,171C 395.718,169.959 402.551,172.459 408,178.5C 410.625,192.701 412.291,207.034 413,221.5C 417.048,275.934 416.048,330.268 410,384.5C 406.06,392.498 399.56,395.998 390.5,395C 293.135,402.59 195.801,402.257 98.5,394C 91.7802,392.082 88.2802,387.582 88,380.5C 81.8043,315.803 82.1377,251.137 89,186.5C 89.4071,179.426 92.9071,174.593 99.5,172C 142.941,168.941 186.275,167.108 229.5,166.5 Z"/></g>
<g><path style="opacity:0.975" fill="#fe6698" d="M 168.5,238.5 C 181.171,238.333 193.838,238.5 206.5,239C 208.286,239.785 209.786,240.951 211,242.5C 211.667,267.833 211.667,293.167 211,318.5C 210.5,320.333 209.333,321.5 207.5,322C 194.167,322.667 180.833,322.667 167.5,322C 165.667,321.5 164.5,320.333 164,318.5C 163.333,293.167 163.333,267.833 164,242.5C 165.25,240.807 166.75,239.473 168.5,238.5 Z"/></g>
<g><path style="opacity:0.971" fill="#fe6698" d="M 292.5,238.5 C 305.171,238.333 317.838,238.5 330.5,239C 332.286,239.785 333.786,240.951 335,242.5C 335.667,267.833 335.667,293.167 335,318.5C 334.5,320.333 333.333,321.5 331.5,322C 318.167,322.667 304.833,322.667 291.5,322C 290.069,321.535 288.903,320.701 288,319.5C 287.333,293.833 287.333,268.167 288,242.5C 289.25,240.807 290.75,239.473 292.5,238.5 Z"/></g>
</svg>
